<svg width="13" height="16" viewBox="0 0 13 16" fill="none" xmlns="http://www.w3.org/2000/svg">
<path d="M9.20998 15.71L12.21 12.71C12.3487 12.5694 12.4427 12.3908 12.4801 12.1968C12.5175 12.0028 12.4966 11.8021 12.42 11.62C12.345 11.4374 12.2176 11.2811 12.0538 11.1707C11.8901 11.0604 11.6974 11.001 11.5 11L9.49998 11L9.49998 8C9.49998 5.87827 8.65713 3.84344 7.15684 2.34315C5.65655 0.842855 3.62171 -3.88002e-07 1.49998 -4.80746e-07C1.23477 -4.92339e-07 0.980412 0.105357 0.792875 0.292893C0.605339 0.480429 0.499983 0.734783 0.499983 0.999999C0.499983 1.26522 0.605339 1.51957 0.792875 1.70711C0.980411 1.89464 1.23477 2 1.49998 2C3.09128 2 4.6174 2.63214 5.74262 3.75736C6.86784 4.88258 7.49998 6.4087 7.49998 8L7.49998 11L5.49998 11C5.30256 11.001 5.10984 11.0604 4.94612 11.1707C4.7824 11.2811 4.655 11.4374 4.57998 11.62C4.524 11.7387 4.4966 11.8688 4.49998 12C4.49922 12.1316 4.52445 12.2621 4.57421 12.3839C4.62398 12.5057 4.6973 12.6166 4.78998 12.71L7.78998 15.71C7.88295 15.8037 7.99355 15.8781 8.11541 15.9289C8.23726 15.9797 8.36797 16.0058 8.49998 16.0058C8.63199 16.0058 8.7627 15.9797 8.88456 15.9289C9.00642 15.8781 9.11702 15.8037 9.20998 15.71Z" fill="#BEBEBE"/>
</svg>
