<svg width="10" height="10" viewBox="0 0 10 10" fill="none" xmlns="http://www.w3.org/2000/svg">
<path fill-rule="evenodd" clip-rule="evenodd" d="M0.246139 8.5654C-0.0820463 8.89358 -0.0820465 9.42567 0.246139 9.75386C0.574325 10.082 1.10642 10.082 1.4346 9.75386L4.99956 6.1889L8.56541 9.75475C8.89359 10.0829 9.42569 10.0829 9.75387 9.75475C10.0821 9.42656 10.0821 8.89447 9.75387 8.56628L6.18803 5.00044L9.75386 1.4346C10.082 1.10642 10.082 0.574325 9.75386 0.246139C9.42568 -0.0820465 8.89358 -0.0820463 8.5654 0.246139L4.99956 3.81197L1.43462 0.247025C1.10643 -0.081161 0.574336 -0.0811612 0.246151 0.247024C-0.0820351 0.57521 -0.0820351 1.1073 0.246151 1.43549L3.8111 5.00044L0.246139 8.5654Z" fill="white"/>
</svg>
