<svg width="20" height="32" viewBox="0 0 20 32" fill="none" xmlns="http://www.w3.org/2000/svg">
<path fill-rule="evenodd" clip-rule="evenodd" d="M10 1.99988C7.87827 1.99988 5.84344 2.84274 4.34315 4.34303C2.84285 5.84332 2 7.87815 2 9.99988C2 12.1216 2.84285 14.1564 4.34315 15.6567C5.84344 17.157 7.87827 17.9999 10 17.9999C12.1217 17.9999 14.1566 17.157 15.6569 15.6567C17.1571 14.1564 18 12.1216 18 9.99988C18 7.87815 17.1571 5.84332 15.6569 4.34303C14.1566 2.84274 12.1217 1.99988 10 1.99988ZM7.90012e-10 9.99988C2.43122e-05 8.06471 0.561543 6.17111 1.61645 4.54875C2.67137 2.92639 4.17435 1.64497 5.94312 0.85989C7.71189 0.0748134 9.67046 -0.180185 11.5813 0.12582C13.4921 0.431825 15.2731 1.28569 16.7083 2.58385C18.1434 3.88201 19.1711 5.5687 19.6666 7.43935C20.1621 9.31001 20.1042 11.2843 19.4999 13.1227C18.8957 14.9611 17.7709 16.5846 16.2622 17.7965C14.7534 19.0083 12.9255 19.7564 11 19.9499V23.9999H15C15.2652 23.9999 15.5196 24.1052 15.7071 24.2928C15.8946 24.4803 16 24.7347 16 24.9999C16 25.2651 15.8946 25.5195 15.7071 25.707C15.5196 25.8945 15.2652 25.9999 15 25.9999H11V30.9999C11 31.2651 10.8946 31.5195 10.7071 31.707C10.5196 31.8945 10.2652 31.9999 10 31.9999C9.73478 31.9999 9.48043 31.8945 9.29289 31.707C9.10536 31.5195 9 31.2651 9 30.9999V25.9999H5C4.73478 25.9999 4.48043 25.8945 4.29289 25.707C4.10536 25.5195 4 25.2651 4 24.9999C4 24.7347 4.10536 24.4803 4.29289 24.2928C4.48043 24.1052 4.73478 23.9999 5 23.9999H9V19.9499C6.53337 19.702 4.24675 18.5467 2.58376 16.7082C0.920768 14.8696 -3.11433e-05 12.4789 7.90012e-10 9.99988Z" fill="#FD2F60"/>
</svg>
