<svg width="29" height="28" viewBox="0 0 29 28" fill="none" xmlns="http://www.w3.org/2000/svg">
<path fill-rule="evenodd" clip-rule="evenodd" d="M17.5 2C17.2348 2 16.9805 1.89464 16.7929 1.70711C16.6054 1.51957 16.5 1.26522 16.5 1C16.5 0.734784 16.6054 0.48043 16.7929 0.292893C16.9805 0.105357 17.2348 0 17.5 0H27.5C27.7652 0 28.0196 0.105357 28.2071 0.292893C28.3947 0.48043 28.5 0.734784 28.5 1V11C28.5 11.2652 28.3947 11.5196 28.2071 11.7071C28.0196 11.8946 27.7652 12 27.5 12C27.2348 12 26.9805 11.8946 26.7929 11.7071C26.6054 11.5196 26.5 11.2652 26.5 11V3.414L18.242 11.672C19.8656 13.6584 20.6637 16.1928 20.4712 18.7511C20.2787 21.3093 19.1103 23.6958 17.2077 25.4168C15.305 27.1378 12.8137 28.0617 10.249 27.9975C7.68433 27.9333 5.24241 26.8858 3.42833 25.0717C1.61424 23.2576 0.566756 20.8157 0.502527 18.251C0.438299 15.6863 1.36223 13.195 3.08325 11.2924C4.80426 9.38976 7.19068 8.22136 9.74896 8.02883C12.3072 7.83631 14.8416 8.63438 16.828 10.258L25.086 2H17.5ZM10.5 10C8.3783 10 6.34346 10.8429 4.84317 12.3431C3.34288 13.8434 2.50003 15.8783 2.50003 18C2.50003 20.1217 3.34288 22.1566 4.84317 23.6569C6.34346 25.1571 8.3783 26 10.5 26C12.6218 26 14.6566 25.1571 16.1569 23.6569C17.6572 22.1566 18.5 20.1217 18.5 18C18.5 15.8783 17.6572 13.8434 16.1569 12.3431C14.6566 10.8429 12.6218 10 10.5 10Z" fill="#20E3EF"/>
</svg>
